<svg width="407" height="77" viewBox="0 0 407 77" fill="none" xmlns="http://www.w3.org/2000/svg">
<path d="M224.92 56.5051C222.434 56.5051 220.187 56.0773 218.178 55.2218C216.203 54.3662 214.637 53.1342 213.479 51.5258C212.321 49.9173 211.726 48.018 211.691 45.8278H219.353C219.455 47.2993 219.965 48.4628 220.885 49.3184C221.838 50.174 223.132 50.6018 224.766 50.6018C226.435 50.6018 227.746 50.2082 228.699 49.4211C229.653 48.5998 230.129 47.5388 230.129 46.2384C230.129 45.1775 229.806 44.3048 229.159 43.6204C228.512 42.936 227.694 42.4055 226.707 42.0291C225.754 41.6184 224.426 41.1735 222.724 40.6944C220.408 40.01 218.519 39.3427 217.054 38.6924C215.624 38.008 214.382 36.9984 213.326 35.6638C212.304 34.2948 211.794 32.4811 211.794 30.2224C211.794 28.1007 212.321 26.2527 213.377 24.6784C214.433 23.1042 215.914 21.9064 217.82 21.0851C219.727 20.2295 221.906 19.8018 224.358 19.8018C228.035 19.8018 231.014 20.7087 233.296 22.5224C235.611 24.302 236.888 26.8002 237.126 30.0171H229.261C229.193 28.7851 228.665 27.7755 227.678 26.9884C226.724 26.1671 225.447 25.7564 223.847 25.7564C222.451 25.7564 221.328 26.1158 220.476 26.8344C219.659 27.5531 219.25 28.5968 219.25 29.9658C219.25 30.924 219.557 31.7282 220.17 32.3784C220.817 32.9944 221.6 33.5078 222.519 33.9184C223.473 34.2948 224.801 34.7398 226.503 35.2531C228.818 35.9375 230.708 36.622 232.172 37.3064C233.637 37.9908 234.896 39.0175 235.952 40.3864C237.008 41.7553 237.535 43.552 237.535 45.7764C237.535 47.6928 237.041 49.4724 236.054 51.1151C235.067 52.7578 233.619 54.0753 231.713 55.0678C229.806 56.026 227.541 56.5051 224.92 56.5051ZM272.081 20.3151L260.027 43.6718V56.1458H252.877V43.6718L240.772 20.3151H248.842L256.503 36.6904L264.113 20.3151H272.081ZM288.514 56.5051C286.028 56.5051 283.781 56.0773 281.772 55.2218C279.797 54.3662 278.23 53.1342 277.073 51.5258C275.915 49.9173 275.319 48.018 275.286 45.8278H282.947C283.049 47.2993 283.56 48.4628 284.479 49.3184C285.432 50.174 286.726 50.6018 288.361 50.6018C290.029 50.6018 291.34 50.2082 292.293 49.4211C293.246 48.5998 293.723 47.5388 293.723 46.2384C293.723 45.1775 293.399 44.3048 292.753 43.6204C292.106 42.936 291.289 42.4055 290.301 42.0291C289.348 41.6184 288.02 41.1735 286.318 40.6944C284.002 40.01 282.112 39.3427 280.648 38.6924C279.218 38.008 277.975 36.9984 276.92 35.6638C275.898 34.2948 275.388 32.4811 275.388 30.2224C275.388 28.1007 275.915 26.2527 276.971 24.6784C278.026 23.1042 279.507 21.9064 281.414 21.0851C283.321 20.2295 285.5 19.8018 287.952 19.8018C291.629 19.8018 294.608 20.7087 296.89 22.5224C299.205 24.302 300.482 26.8002 300.721 30.0171H292.855C292.787 28.7851 292.259 27.7755 291.272 26.9884C290.318 26.1671 289.041 25.7564 287.441 25.7564C286.045 25.7564 284.921 26.1158 284.07 26.8344C283.253 27.5531 282.845 28.5968 282.845 29.9658C282.845 30.924 283.151 31.7282 283.764 32.3784C284.41 32.9944 285.194 33.5078 286.113 33.9184C287.066 34.2948 288.394 34.7398 290.097 35.2531C292.412 35.9375 294.302 36.622 295.766 37.3064C297.23 37.9908 298.49 39.0175 299.546 40.3864C300.601 41.7553 301.129 43.552 301.129 45.7764C301.129 47.6928 300.635 49.4724 299.647 51.1151C298.66 52.7578 297.213 54.0753 295.307 55.0678C293.399 56.026 291.135 56.5051 288.514 56.5051ZM331.589 20.3151V26.1158H322.089V56.1458H314.939V26.1158H305.439V20.3151H331.589ZM343.956 26.1158V35.0991H355.959V40.7971H343.956V50.2938H357.491V56.1458H336.806V20.2638H357.491V26.1158H343.956ZM402.857 20.3151V56.1458H395.706V32.8404L386.156 56.1458H380.742L371.14 32.8404V56.1458H363.989V20.3151H372.11L383.449 46.9571L394.787 20.3151H402.857Z" fill="#F2EFEF"/>
<path d="M29.5213 31.403C29.5213 33.3194 29.0617 35.1161 28.1423 36.793C27.2571 38.4699 25.844 39.8217 23.9031 40.8483C21.9964 41.875 19.5788 42.3883 16.6506 42.3883H10.6748V56.1457H3.52441V20.315H16.6506C19.4086 20.315 21.758 20.7941 23.6988 21.7523C25.6397 22.7106 27.0868 24.0281 28.0402 25.705C29.0276 27.3819 29.5213 29.2813 29.5213 31.403ZM16.3441 36.5877C18.319 36.5877 19.7831 36.1428 20.7365 35.253C21.6899 34.329 22.1666 33.0457 22.1666 31.403C22.1666 27.9123 20.2258 26.167 16.3441 26.167H10.6748V36.5877H16.3441ZM41.7485 20.315V56.1457H34.5981V20.315H41.7485ZM56.1168 50.0883H72.1542V56.1457H47.8427V50.6017L63.778 26.3723H47.8427V20.315H72.1542V25.859L56.1168 50.0883ZM85.5445 50.0883H101.582V56.1457H77.2704V50.6017L93.2057 26.3723H77.2704V20.315H101.582V25.859L85.5445 50.0883ZM129.528 49.3183H115.33L112.98 56.1457H105.472L118.292 20.2637H126.617L139.437 56.1457H131.878L129.528 49.3183ZM127.588 43.569L122.429 28.5797L117.271 43.569H127.588ZM162.616 56.1457L154.75 42.183H151.38V56.1457H144.229V20.315H157.611C160.369 20.315 162.718 20.8113 164.659 21.8037C166.6 22.7619 168.047 24.0794 169 25.7563C169.987 27.399 170.481 29.247 170.481 31.3003C170.481 33.6617 169.8 35.8006 168.438 37.717C167.076 39.5993 165.05 40.8997 162.361 41.6183L170.89 56.1457H162.616ZM151.38 36.793H157.355C159.296 36.793 160.743 36.331 161.697 35.407C162.649 34.4488 163.127 33.1313 163.127 31.4543C163.127 29.8117 162.649 28.5454 161.697 27.6557C160.743 26.7317 159.296 26.2697 157.355 26.2697H151.38V36.793ZM184.099 20.315V56.1457H176.949V20.315H184.099ZM213.023 49.3183H198.825L196.475 56.1457H188.967L201.787 20.2637H210.112L222.932 56.1457H215.373L213.023 49.3183ZM211.082 43.569L205.924 28.5797L200.765 43.569H211.082Z" fill="#D24040"/>
</svg>
